<svg viewBox="0 0 300 300" xmlns="http://www.w3.org/2000/svg">
    <path fill="#108ee9" stroke="#108ee9" stroke-width="10" stroke-linejoin="round" d="M295,149.4a144.16,144.16,0,0,1-13.47,61L176,149.53,281.48,88.36A144.16,144.16,0,0,1,295,149.4ZM268.23,65.56l-105.08,61V5A145,145,0,0,1,268.23,65.56ZM136.8,126.87,99.37,105.26,136.8,40.41ZM126,6.39,76.54,92.07,31.43,66A145.19,145.19,0,0,1,126,6.39ZM18.26,88.87l45.11,26-49.2,85.22A144.92,144.92,0,0,1,18.26,88.87ZM28.37,228.26,86.19,128.08l50.61,29.23V293.8A145.1,145.1,0,0,1,28.37,228.26ZM163.16,293.8V172.53l105.07,60.71A145,145,0,0,1,163.16,293.8Z"></path>
</svg>
